<?xml version="1.0" encoding="utf-8"?>
<!-- Generator: Adobe Illustrator 18.1.1, SVG Export Plug-In . SVG Version: 6.00 Build 0)  -->
<svg version="1.1" baseProfile="basic" id="icon-slidset"
	 xmlns="http://www.w3.org/2000/svg" xmlns:xlink="http://www.w3.org/1999/xlink" x="0px" y="0px" viewBox="0 0 40 40"
	 xml:space="preserve">
<circle id="svg_4" fill="#FFB105" cx="14" cy="36" r="2"/>
<circle id="svg_5" fill="#FF9303" cx="20" cy="36" r="2"/>
<path id="rect7603" fill="#FFB105" stroke="#FF9303" stroke-width="1" d="M2.6,3h34.9c0.5,0,1,0.4,1,1v20.5c0,0.5-7.3,6.9-7.8,6.9
	h-28c-0.5,0-1-0.4-1-1V4C1.6,3.4,2,3,2.6,3z"/>
<g id="g7654" transform="matrix(1.054774,0.000000,0.000000,1.049989,-0.814647,4.485012)">
	
		<linearGradient id="path7644_1_" gradientUnits="userSpaceOnUse" x1="-16.7572" y1="841.6441" x2="-16.7572" y2="856.6659" gradientTransform="matrix(1.1592 0 0 0.8376 39.1062 -692.8676)">
		<stop  offset="0" style="stop-color:#8595BC"/>
		<stop  offset="1" style="stop-color:#041A3B"/>
	</linearGradient>
	<path id="path7644" fill="url(#path7644_1_)" d="M5,22.7h29.3v-8.9H5V22.7z"/>
	
		<linearGradient id="path16203_1_" gradientUnits="userSpaceOnUse" x1="-16.7572" y1="67.2867" x2="-16.7572" y2="82.3085" gradientTransform="matrix(1.1592 0 0 -1.162 39.1062 94.3043)">
		<stop  offset="0" style="stop-color:#D0D6E5"/>
		<stop  offset="1" style="stop-color:#093A80"/>
	</linearGradient>
	<path id="path16203" fill="url(#path16203_1_)" d="M5,1.5h29.3v12.3H5V1.5z"/>
	<g id="g16205" transform="matrix(1.189217,0.000000,0.000000,1.189217,-3.525355,-6.535408)">
		<g id="g16207">
			<path id="path16209" opacity="4.999994e-002" fill="#E8F52F" d="M16.5,11.4c0,1.9-1.5,3.5-3.5,3.5c-1.9,0-3.5-1.5-3.5-3.5
				c0-1.9,1.5-3.5,3.5-3.5C14.8,7.9,16.5,9.5,16.5,11.4z"/>
			<path id="path16211" opacity="0.2083" fill="#ECF751" d="M16.1,11.4c0,1.7-1.4,3.2-3.2,3.2c-1.7,0-3.2-1.4-3.2-3.2
				c0-1.7,1.4-3.2,3.2-3.2C14.7,8.3,16.1,9.6,16.1,11.4L16.1,11.4z"/>
			<path id="path16213" opacity="0.3667" fill="#F0F972" d="M15.8,11.4c0,1.5-1.3,2.8-2.8,2.8s-2.8-1.3-2.8-2.8s1.3-2.8,2.8-2.8
				S15.8,9.9,15.8,11.4L15.8,11.4z"/>
			<path id="path16215" opacity="0.525" fill="#F4FA95" d="M15.4,11.4c0,1.4-1.1,2.5-2.5,2.5c-1.4,0-2.5-1.1-2.5-2.5S11.6,9,13,9
				C14.3,9,15.4,10.1,15.4,11.4z"/>
			<path id="path16217" opacity="0.6833" fill="#F7FCB7" d="M15.1,11.4c0,1.2-0.9,2.1-2.1,2.1s-2.1-0.9-2.1-2.1s0.9-2.1,2.1-2.1
				S15.1,10.2,15.1,11.4L15.1,11.4z"/>
			<path id="path16219" opacity="0.8417" fill="#FBFDDB" d="M14.8,11.4c0,1-0.9,1.8-1.8,1.8c-0.9,0-1.8-0.9-1.8-1.8S12,9.6,13,9.6
				C13.9,9.6,14.8,10.5,14.8,11.4z"/>
			<path id="path16221" fill="#FFFFFF" d="M14.4,11.4c0,0.9-0.7,1.5-1.5,1.5c-0.9,0-1.5-0.7-1.5-1.5c0-0.9,0.7-1.5,1.5-1.5
				C13.7,9.9,14.4,10.6,14.4,11.4L14.4,11.4z"/>
		</g>
	</g>
	<path id="path16223" opacity="0.3" d="M21.8,15.5h7.4l1.4,0.4h-2.4c0,0,2.4,0.2,3.7,1.7c1.2,1.4-1.4,3.2-1.4,3.2l0,0
		c-0.1-0.3-0.7-2.8-1.9-3.8c-0.9-0.8-1.9-1-1.9-1h-4.8v-0.4V15.5z"/>
	<path id="path16225" opacity="0.3" d="M26.7,16.1h-4.3l8,4.5L26.7,16.1L26.7,16.1z"/>
	<path id="path16227" fill="#515151" d="M21.8,15.6h7.4l1.1-0.7h-2.4c0,0,2.2-0.4,2.5-3C30.7,9.4,27,6.6,27,6.6s0,0,0,0.1
		c0.1,0.6,1.1,4.9,0.4,6.5c-0.3,1.4-1.2,1.7-1.2,1.7h-4.7l0.2,0.7H21.8z"/>
	<path id="path16229" fill="#515151" d="M26.3,14.5H22l5.1-7.8L26.3,14.5z"/>
</g>
<path id="rect7675" fill="none" stroke="#FFFFFF" stroke-width="1" d="M2.6,3.8h34.7c0.1,0,0.2,0.1,0.2,0.2v20.3
	c0,0.8-6.1,6.1-6.2,6.1H2.6c-0.1,0-0.2-0.1-0.2-0.2V4.1C2.4,3.9,2.5,3.8,2.6,3.8z"/>
<rect id="rect8163" x="4.9" y="6.5" opacity="0.8466" fill="none" stroke="#FF7601" stroke-miterlimit="10" width="30.1" height="21.5"/>
<path id="path2210" fill="#DD7800" stroke="#FF9303" stroke-width="1" d="M30.4,31.3c1.7,0.3,8.2-3.9,8-7.3
	c-1.3,2.1-4.1,1.1-7.6,1.2C30.8,25.3,31.1,30.9,30.4,31.3z"/>
<linearGradient id="path2247_1_" gradientUnits="userSpaceOnUse" x1="28.2601" y1="8.6437" x2="28.9522" y2="7.6163" gradientTransform="matrix(1 0 0 -1 5.1476 34.7002)">
	<stop  offset="0" style="stop-color:#FFFFFF"/>
	<stop  offset="1" style="stop-color:#FFFFFF;stop-opacity:0"/>
</linearGradient>
<path id="path2247" opacity="0.3693" fill="none" stroke="url(#path2247_1_)" stroke-width="1" d="M31.7,29.4
	c1.2-0.6,3.8-1.8,4.9-3.5c-1.4,0.6-2.5,0.2-4.9,0.2C31.7,26.1,31.8,28.8,31.7,29.4z"/>
<radialGradient id="rect8150_1_" cx="-103.4929" cy="76.2868" r="17.1231" gradientTransform="matrix(1.7105 0 0 -1.1248 185.9593 94.8461)" gradientUnits="userSpaceOnUse">
	<stop  offset="0" style="stop-color:#FFFFFF"/>
	<stop  offset="1" style="stop-color:#FFFFFF;stop-opacity:0"/>
</radialGradient>
<path id="rect8150" opacity="0.3011" fill="url(#rect8150_1_)" d="M2.8,4.3v18.9C22,24,24.1,12,37.1,12V4.3H2.8z"/>
<circle id="svg_6" fill="#FF7601" cx="26" cy="36" r="2"/>
</svg>
